# BASE-45 | meters, Y-up, +Z forward | editable quads
o Base45
v 0 0.99 0.13
v 0.1025 1.025 0.112583
v 0.177535 1.025 0.065
v 0.205 1.025 0
v 0.177535 1.025 -0.075
v 0.1025 1.025 -0.129904
v 0 0.99 -0.15
v -0.1025 1.025 -0.129904
v -0.177535 1.025 -0.075
v -0.205 1.025 0
v -0.177535 1.025 0.065
v -0.1025 1.025 0.112583
v 0 1.115 0.125
v 0.095 1.115 0.108253
v 0.164545 1.115 0.0625
v 0.19 1.115 0
v 0.164545 1.115 -0.07
v 0.095 1.115 -0.121244
v 0 1.115 -0.14
v -0.095 1.115 -0.121244
v -0.164545 1.115 -0.07
v -0.19 1.115 0
v -0.164545 1.115 0.0625
v -0.095 1.115 0.108253
v 0 1.24 0.115
v 0.0775 1.24 0.099593
v 0.134234 1.24 0.0575
v 0.155 1.24 0
v 0.134234 1.24 -0.06
v 0.0775 1.24 -0.103923
v 0 1.24 -0.12
v -0.0775 1.24 -0.103923
v -0.134234 1.24 -0.06
v -0.155 1.24 0
v -0.134234 1.24 0.0575
v -0.0775 1.24 0.099593
v 0 1.4 0.155
v 0.1 1.4 0.134234
v 0.173205 1.4 0.0775
v 0.2 1.4 0
v 0.173205 1.4 -0.06
v 0.1 1.4 -0.103923
v 0 1.4 -0.12
v -0.1 1.4 -0.103923
v -0.173205 1.4 -0.06
v -0.2 1.4 0
v -0.173205 1.4 0.0775
v -0.1 1.4 0.134234
v 0 1.46 0.145
v 0.1225 1.46 0.125574
v 0.212176 1.46 0.0725
v 0.245 1.46 0
v 0.212176 1.46 -0.06
v 0.1225 1.46 -0.103923
v 0 1.46 -0.12
v -0.1225 1.46 -0.103923
v -0.212176 1.46 -0.06
v -0.245 1.46 0
v -0.212176 1.46 0.0725
v -0.1225 1.46 0.125574
v 0 1.535 0.13
v 0.1325 1.535 0.112583
v 0.229497 1.535 0.065
v 0.229497 1.535 -0.06
v 0.1325 1.535 -0.103923
v 0 1.535 -0.12
v -0.1325 1.535 -0.103923
v -0.229497 1.535 -0.06
v -0.229497 1.535 0.065
v -0.1325 1.535 0.112583
v 0 1.61 0.11
v 0.1175 1.61 0.095263
v 0.203516 1.61 0.055
v 0.235 1.61 0
v 0.203516 1.61 -0.055
v 0.1175 1.61 -0.095263
v 0 1.61 -0.11
v -0.1175 1.61 -0.095263
v -0.203516 1.61 -0.055
v -0.235 1.61 0
v -0.203516 1.61 0.055
v -0.1175 1.61 0.095263
v 0 1.65 0.058
v 0.044 1.65 0.047818
v 0.07621 1.65 0.02
v 0.088 1.65 -0.018
v 0.07621 1.65 -0.056
v 0.044 1.65 -0.083818
v 0 1.65 -0.094
v -0.044 1.65 -0.083818
v -0.07621 1.65 -0.056
v -0.088 1.65 -0.018
v -0.07621 1.65 0.02
v -0.044 1.65 0.047818
v 0 1.715 0.06
v 0.04 1.715 0.050086
v 0.069282 1.715 0.023
v 0.08 1.715 -0.014
v 0.069282 1.715 -0.051
v 0.04 1.715 -0.078086
v 0 1.715 -0.088
v -0.04 1.715 -0.078086
v -0.069282 1.715 -0.051
v -0.08 1.715 -0.014
v -0.069282 1.715 0.023
v -0.04 1.715 0.050086
v 0 1.77 0.061
v 0.036 1.772679 0.051488
v 0.062354 1.78 0.0255
v 0.072 1.79 -0.01
v 0.062354 1.7925 -0.05025
v 0.036 1.781651 -0.085738
v 0 1.775 -0.1
v -0.036 1.781651 -0.085738
v -0.062354 1.7925 -0.05025
v -0.072 1.79 -0.01
v -0.062354 1.78 0.0255
v -0.036 1.772679 0.051488
v 0 1.755 0.1204
v 0.0378 1.760272 0.111195
v 0.072342 1.7734 0.0894
v 0.1062 1.7966 -0.019
v 0.087942 1.8089 -0.07735
v 0.0516 1.81036 -0.111845
v 0 1.81 -0.125
v -0.0516 1.81036 -0.111845
v -0.087942 1.8089 -0.07735
v -0.1062 1.7966 -0.019
v -0.072342 1.7734 0.0894
v -0.0378 1.760272 0.111195
v 0 1.75 0.16
v 0.039 1.757 0.151
v 0.079 1.774 0.132
v 0.129 1.806 -0.025
v 0.105 1.82525 -0.09775
v 0.062 1.83575 -0.13625
v 0 1.84 -0.151
v -0.062 1.83575 -0.13625
v -0.105 1.82525 -0.09775
v -0.129 1.806 -0.025
v -0.079 1.774 0.132
v -0.039 1.757 0.151
v 0.102181 1.78424 0.101906
v 0.122139 1.79576 0.038338
v -0.102181 1.78424 0.101906
v -0.122139 1.79576 0.038338
v 0 1.785 0.182
v 0.054 1.787 0.174
v 0.105 1.798 0.157
v 0.145 1.83 -0.012
v 0.126 1.849 -0.0895
v 0.073 1.864 -0.1535
v 0 1.87 -0.178
v -0.073 1.864 -0.1535
v -0.126 1.849 -0.0895
v -0.145 1.83 -0.012
v -0.105 1.798 0.157
v -0.054 1.787 0.174
v 0.123545 1.80824 0.127321
v 0.139511 1.81976 0.057456
v -0.123545 1.80824 0.127321
v -0.139511 1.81976 0.057456
v 0 1.81 0.184
v 0.073 1.815091 0.177
v 0.12644 1.829 0.164
v 0.161 1.85 0
v 0.143 1.86625 -0.09875
v 0.077 1.88575 -0.17225
v 0 1.895 -0.199
v -0.077 1.88575 -0.17225
v -0.143 1.86625 -0.09875
v -0.161 1.85 0
v -0.12644 1.829 0.164
v -0.073 1.815091 0.177
v 0.142462 1.83572 0.136205
v 0.156258 1.84328 0.067875
v -0.142462 1.83572 0.136205
v -0.156258 1.84328 0.067875
v 0 1.825 0.183
v 0.0805 1.830359 0.176014
v 0.13943 1.845 0.163965
v 0.174 1.873 0
v 0.145 1.88625 -0.10675
v 0.081 1.90875 -0.18725
v 0 1.92 -0.217
v -0.081 1.90875 -0.18725
v -0.145 1.88625 -0.10675
v -0.174 1.873 0
v -0.13943 1.845 0.163965
v -0.0805 1.830359 0.176014
v 0.155457 1.85396 0.136473
v 0.169256 1.86404 0.068
v -0.155457 1.85396 0.136473
v -0.169256 1.86404 0.068
v 0 1.89 0.23
v 0.174071 1.9125 0.154863
v 0.201 1.935 0
v 0.174071 1.935 -0.11875
v 0.1005 1.94134 -0.204096
v 0 1.945 -0.235
v -0.1005 1.94134 -0.204096
v -0.174071 1.935 -0.11875
v -0.201 1.935 0
v -0.174071 1.9125 0.154863
v 0.186556 1.9197 0.130296
v 0.197305 1.9278 0.064884
v -0.186556 1.9197 0.130296
v -0.197305 1.9278 0.064884
v 0 1.935 0.192
v 0.182731 1.955 0.152693
v 0.211 1.975 0
v 0.182731 1.975 -0.1225
v 0.1055 1.975 -0.212176
v 0 1.975 -0.245
v -0.1055 1.975 -0.212176
v -0.182731 1.975 -0.1225
v -0.211 1.975 0
v -0.182731 1.955 0.152693
v 0.195837 1.9614 0.128433
v 0.207121 1.9686 0.063957
v -0.195837 1.9614 0.128433
v -0.207121 1.9686 0.063957
v 0 1.985 0.195
v 0.109 1.988349 0.174727
v 0.188794 1.9975 0.151318
v 0.218 2.01 0
v 0.188794 2.015 -0.1225
v 0.109 2.01866 -0.212176
v 0 2.02 -0.245
v -0.109 2.01866 -0.212176
v -0.188794 2.015 -0.1225
v -0.218 2.01 0
v -0.188794 1.9975 0.151318
v -0.109 1.988349 0.174727
v 0.202334 2.0015 0.125492
v 0.213992 2.006 0.062541
v -0.202334 2.0015 0.125492
v -0.213992 2.006 0.062541
v 0 2.049 0.187
v 0.1055 2.050072 0.177
v 0.182731 2.053 0.145
v 0.211 2.057 0
v 0.182731 2.059 -0.118
v 0.1055 2.060464 -0.204382
v 0 2.061 -0.236
v -0.1055 2.060464 -0.204382
v -0.182731 2.059 -0.118
v -0.211 2.057 0
v -0.182731 2.053 0.145
v -0.1055 2.050072 0.177
v 0.195837 2.05428 0.119475
v 0.207121 2.05572 0.059564
v -0.195837 2.05428 0.119475
v -0.207121 2.05572 0.059564
v 0 2.1 0.166
v 0.096 2.10067 0.155
v 0.166277 2.1025 0.124
v 0.192 2.105 0
v 0.166277 2.1075 -0.1065
v 0.096 2.10933 -0.184463
v 0 2.11 -0.213
v -0.096 2.10933 -0.184463
v -0.166277 2.1075 -0.1065
v -0.192 2.105 0
v -0.166277 2.1025 0.124
v -0.096 2.10067 0.155
v 0.178203 2.1033 0.101876
v 0.18847 2.1042 0.050799
v -0.178203 2.1033 0.101876
v -0.18847 2.1042 0.050799
v 0 2.185 0.053
v 0.0415 2.185268 0.045899
v 0.07188 2.186 0.0265
v 0.083 2.187 0
v 0.07188 2.187 -0.0575
v 0.0415 2.187 -0.099593
v 0 2.187 -0.115
v -0.0415 2.187 -0.099593
v -0.07188 2.187 -0.0575
v -0.083 2.187 0
v -0.07188 2.186 0.0265
v -0.0415 2.185268 0.045899
v 0.077035 2.18632 0.020734
v 0.081474 2.18668 0.010368
v -0.077035 2.18632 0.020734
v -0.081474 2.18668 0.010368
v 0 2.2 -0.03
v 0.052503 1.896645 0.180745
v 0.102 1.882 0.173216
v 0.151497 1.896645 0.16156
v 0.172 1.915333 0.155595
v 0.172 1.948667 0.156195
v 0.151497 1.967355 0.162832
v 0.102 1.982 0.175016
v 0.052503 1.967355 0.182018
v 0.032 1.948667 0.183327
v 0.032 1.915333 0.182727
v 0.062402 1.903716 0.178792
v 0.102 1.892 0.172396
v 0.141598 1.903716 0.163443
v 0.158 1.918667 0.159044
v 0.158 1.945333 0.159524
v 0.141598 1.960284 0.164462
v 0.102 1.972 0.173836
v 0.062402 1.960284 0.17981
v 0.046 1.945333 0.18123
v 0.046 1.918667 0.18075
v 0.102 1.932 0.173116
v -0.052503 1.896645 0.180745
v -0.102 1.882 0.173216
v -0.151497 1.896645 0.16156
v -0.172 1.915333 0.155595
v -0.172 1.948667 0.156195
v -0.151497 1.967355 0.162832
v -0.102 1.982 0.175016
v -0.052503 1.967355 0.182018
v -0.032 1.948667 0.183327
v -0.032 1.915333 0.182727
v -0.062402 1.903716 0.178792
v -0.102 1.892 0.172396
v -0.141598 1.903716 0.163443
v -0.158 1.918667 0.159044
v -0.158 1.945333 0.159524
v -0.141598 1.960284 0.164462
v -0.102 1.972 0.173836
v -0.062402 1.960284 0.17981
v -0.046 1.945333 0.18123
v -0.046 1.918667 0.18075
v -0.102 1.932 0.173116
v 0.224 1.894 0.048
v 0.247 1.9 0.005
v 0.277 1.948 -0.005
v 0.257 1.991 0.01
v 0.223 1.988 0.054
v 0.214 1.944 0.078
v 0.22431 1.9155 0.03327
v 0.23742 1.91892 0.00876
v 0.25452 1.94628 0.00306
v 0.24312 1.97079 0.01161
v 0.22374 1.96908 0.03669
v 0.21861 1.944 0.05037
v 0.234 1.944 0.027
v -0.224 1.894 0.048
v -0.247 1.9 0.005
v -0.277 1.948 -0.005
v -0.257 1.991 0.01
v -0.223 1.988 0.054
v -0.214 1.944 0.078
v -0.22431 1.9155 0.03327
v -0.23742 1.91892 0.00876
v -0.25452 1.94628 0.00306
v -0.24312 1.97079 0.01161
v -0.22374 1.96908 0.03669
v -0.21861 1.944 0.05037
v -0.234 1.944 0.027
v 0 0.975 0
v 0.059946 0.9 0.07566
v 0.125 0.9 0.107
v 0.190054 0.9 0.07566
v 0.217 0.9 0
v 0.190054 0.9 -0.079196
v 0.125 0.9 -0.112
v 0.059946 0.9 -0.079196
v 0.033 0.9 0
v 0.096967 0.625 0.07874
v 0.15 0.625 0.101
v 0.203033 0.625 0.07874
v 0.225 0.625 0.025
v 0.203033 0.625 -0.035104
v 0.15 0.625 -0.06
v 0.096967 0.625 -0.035104
v 0.075 0.625 0.025
v 0.09626 0.585 0.079447
v 0.15 0.585 0.102
v 0.20374 0.585 0.079447
v 0.226 0.585 0.025
v 0.20374 0.585 -0.029447
v 0.15 0.585 -0.052
v 0.09626 0.585 -0.029447
v 0.074 0.585 0.025
v 0.09826 0.545 0.07374
v 0.152 0.545 0.096
v 0.20574 0.545 0.07374
v 0.228 0.545 0.02
v 0.20574 0.545 -0.035154
v 0.152 0.545 -0.058
v 0.09826 0.545 -0.035154
v 0.076 0.545 0.02
v 0.102896 0.43 0.061518
v 0.163 0.43 0.087
v 0.223104 0.43 0.061518
v 0.248 0.43 0
v 0.223104 0.43 -0.06364
v 0.163 0.43 -0.09
v 0.102896 0.43 -0.06364
v 0.078 0.43 0
v 0.124745 0.16 0.030962
v 0.17 0.16 0.05
v 0.215255 0.16 0.030962
v 0.234 0.16 -0.015
v 0.215255 0.16 -0.064497
v 0.17 0.16 -0.085
v 0.124745 0.16 -0.064497
v 0.106 0.16 -0.015
v 0.109896 0.09 0.156421
v 0.17 0.09 0.215
v 0.230104 0.09 0.156421
v 0.255 0.09 0.015
v 0.230104 0.09 -0.052175
v 0.17 0.09 -0.08
v 0.109896 0.09 -0.052175
v 0.085 0.09 0.015
v 0.10636 0.025 0.167028
v 0.17 0.025 0.23
v 0.23364 0.025 0.167028
v 0.26 0.025 0.015
v 0.23364 0.025 -0.055711
v 0.17 0.025 -0.085
v 0.10636 0.025 -0.055711
v 0.08 0.025 0.015
v 0.109896 0 0.163492
v 0.17 0 0.225
v 0.230104 0 0.163492
v 0.255 0 0.015
v 0.230104 0 -0.052175
v 0.17 0 -0.08
v 0.109896 0 -0.052175
v 0.085 0 0.015
v 0.17 0 0.049704
v 0.315 1.479846 0.067175
v 0.315 1.457 0
v 0.315 1.479846 -0.067175
v 0.315 1.535 -0.095
v 0.315 1.590154 -0.067175
v 0.315 1.613 0
v 0.315 1.590154 0.067175
v 0.315 1.535 0.095
v 0.56 1.491866 0.043841
v 0.56 1.474 0
v 0.56 1.491866 -0.043841
v 0.56 1.535 -0.062
v 0.56 1.578134 -0.043841
v 0.56 1.596 0
v 0.56 1.578134 0.043841
v 0.56 1.535 0.062
v 0.6 1.492574 0.042426
v 0.6 1.475 0
v 0.6 1.492574 -0.042426
v 0.6 1.535 -0.06
v 0.6 1.577426 -0.042426
v 0.6 1.595 0
v 0.6 1.577426 0.042426
v 0.6 1.535 0.06
v 0.64 1.490452 0.044548
v 0.64 1.472 0
v 0.64 1.490452 -0.044548
v 0.64 1.535 -0.063
v 0.64 1.579548 -0.044548
v 0.64 1.598 0
v 0.64 1.579548 0.044548
v 0.64 1.535 0.063
v 0.76 1.492574 0.039598
v 0.76 1.475 0
v 0.76 1.492574 -0.039598
v 0.76 1.535 -0.056
v 0.76 1.577426 -0.039598
v 0.76 1.595 0
v 0.76 1.577426 0.039598
v 0.76 1.535 0.056
v 0.89 1.510958 0.02687
v 0.89 1.501 0
v 0.89 1.510958 -0.02687
v 0.89 1.535 -0.038
v 0.89 1.559042 -0.02687
v 0.89 1.569 0
v 0.89 1.559042 0.02687
v 0.89 1.535 0.038
v 0.945 1.510251 0.045255
v 0.945 1.5 0
v 0.945 1.510251 -0.045255
v 0.945 1.535 -0.064
v 0.945 1.559749 -0.045255
v 0.945 1.57 0
v 0.945 1.559749 0.045255
v 0.945 1.535 0.064
v 1.005 1.514494 0.047376
v 1.005 1.506 0
v 1.005 1.514494 -0.047376
v 1.005 1.535 -0.067
v 1.005 1.555506 -0.047376
v 1.005 1.564 0
v 1.005 1.555506 0.047376
v 1.005 1.535 0.067
v 1.095 1.521565 0.035355
v 1.095 1.516 0
v 1.095 1.521565 -0.035355
v 1.095 1.535 -0.05
v 1.095 1.548435 -0.035355
v 1.095 1.554 0
v 1.095 1.548435 0.035355
v 1.095 1.535 0.05
v 1.095 1.535 0
v 0.9865 1.516137 0.132355
v 0.9865 1.505 0.140791
v 0.9865 1.493863 0.132355
v 1.0135 1.495772 0.13331
v 1.0135 1.505 0.142141
v 1.0135 1.514228 0.13331
v 1 1.505 0.13571
v -0.059946 0.9 0.07566
v -0.125 0.9 0.107
v -0.190054 0.9 0.07566
v -0.217 0.9 0
v -0.190054 0.9 -0.079196
v -0.125 0.9 -0.112
v -0.059946 0.9 -0.079196
v -0.033 0.9 0
v -0.096967 0.625 0.07874
v -0.15 0.625 0.101
v -0.203033 0.625 0.07874
v -0.225 0.625 0.025
v -0.203033 0.625 -0.035104
v -0.15 0.625 -0.06
v -0.096967 0.625 -0.035104
v -0.075 0.625 0.025
v -0.09626 0.585 0.079447
v -0.15 0.585 0.102
v -0.20374 0.585 0.079447
v -0.226 0.585 0.025
v -0.20374 0.585 -0.029447
v -0.15 0.585 -0.052
v -0.09626 0.585 -0.029447
v -0.074 0.585 0.025
v -0.09826 0.545 0.07374
v -0.152 0.545 0.096
v -0.20574 0.545 0.07374
v -0.228 0.545 0.02
v -0.20574 0.545 -0.035154
v -0.152 0.545 -0.058
v -0.09826 0.545 -0.035154
v -0.076 0.545 0.02
v -0.102896 0.43 0.061518
v -0.163 0.43 0.087
v -0.223104 0.43 0.061518
v -0.248 0.43 0
v -0.223104 0.43 -0.06364
v -0.163 0.43 -0.09
v -0.102896 0.43 -0.06364
v -0.078 0.43 0
v -0.124745 0.16 0.030962
v -0.17 0.16 0.05
v -0.215255 0.16 0.030962
v -0.234 0.16 -0.015
v -0.215255 0.16 -0.064497
v -0.17 0.16 -0.085
v -0.124745 0.16 -0.064497
v -0.106 0.16 -0.015
v -0.109896 0.09 0.156421
v -0.17 0.09 0.215
v -0.230104 0.09 0.156421
v -0.255 0.09 0.015
v -0.230104 0.09 -0.052175
v -0.17 0.09 -0.08
v -0.109896 0.09 -0.052175
v -0.085 0.09 0.015
v -0.10636 0.025 0.167028
v -0.17 0.025 0.23
v -0.23364 0.025 0.167028
v -0.26 0.025 0.015
v -0.23364 0.025 -0.055711
v -0.17 0.025 -0.085
v -0.10636 0.025 -0.055711
v -0.08 0.025 0.015
v -0.109896 0 0.163492
v -0.17 0 0.225
v -0.230104 0 0.163492
v -0.255 0 0.015
v -0.230104 0 -0.052175
v -0.17 0 -0.08
v -0.109896 0 -0.052175
v -0.085 0 0.015
v -0.17 0 0.049704
v -0.315 1.479846 0.067175
v -0.315 1.457 0
v -0.315 1.479846 -0.067175
v -0.315 1.535 -0.095
v -0.315 1.590154 -0.067175
v -0.315 1.613 0
v -0.315 1.590154 0.067175
v -0.315 1.535 0.095
v -0.56 1.491866 0.043841
v -0.56 1.474 0
v -0.56 1.491866 -0.043841
v -0.56 1.535 -0.062
v -0.56 1.578134 -0.043841
v -0.56 1.596 0
v -0.56 1.578134 0.043841
v -0.56 1.535 0.062
v -0.6 1.492574 0.042426
v -0.6 1.475 0
v -0.6 1.492574 -0.042426
v -0.6 1.535 -0.06
v -0.6 1.577426 -0.042426
v -0.6 1.595 0
v -0.6 1.577426 0.042426
v -0.6 1.535 0.06
v -0.64 1.490452 0.044548
v -0.64 1.472 0
v -0.64 1.490452 -0.044548
v -0.64 1.535 -0.063
v -0.64 1.579548 -0.044548
v -0.64 1.598 0
v -0.64 1.579548 0.044548
v -0.64 1.535 0.063
v -0.76 1.492574 0.039598
v -0.76 1.475 0
v -0.76 1.492574 -0.039598
v -0.76 1.535 -0.056
v -0.76 1.577426 -0.039598
v -0.76 1.595 0
v -0.76 1.577426 0.039598
v -0.76 1.535 0.056
v -0.89 1.510958 0.02687
v -0.89 1.501 0
v -0.89 1.510958 -0.02687
v -0.89 1.535 -0.038
v -0.89 1.559042 -0.02687
v -0.89 1.569 0
v -0.89 1.559042 0.02687
v -0.89 1.535 0.038
v -0.945 1.510251 0.045255
v -0.945 1.5 0
v -0.945 1.510251 -0.045255
v -0.945 1.535 -0.064
v -0.945 1.559749 -0.045255
v -0.945 1.57 0
v -0.945 1.559749 0.045255
v -0.945 1.535 0.064
v -1.005 1.514494 0.047376
v -1.005 1.506 0
v -1.005 1.514494 -0.047376
v -1.005 1.535 -0.067
v -1.005 1.555506 -0.047376
v -1.005 1.564 0
v -1.005 1.555506 0.047376
v -1.005 1.535 0.067
v -1.095 1.521565 0.035355
v -1.095 1.516 0
v -1.095 1.521565 -0.035355
v -1.095 1.535 -0.05
v -1.095 1.548435 -0.035355
v -1.095 1.554 0
v -1.095 1.548435 0.035355
v -1.095 1.535 0.05
v -1.095 1.535 0
v -0.9865 1.516137 0.132355
v -0.9865 1.505 0.140791
v -0.9865 1.493863 0.132355
v -1.0135 1.495772 0.13331
v -1.0135 1.505 0.142141
v -1.0135 1.514228 0.13331
v -1 1.505 0.13571
g Torso
f 1 2 14 13
f 2 3 15 14
f 3 4 16 15
f 4 5 17 16
f 5 6 18 17
f 6 7 19 18
f 7 8 20 19
f 8 9 21 20
f 9 10 22 21
f 10 11 23 22
f 11 12 24 23
f 12 1 13 24
f 13 14 26 25
f 14 15 27 26
f 15 16 28 27
f 16 17 29 28
f 17 18 30 29
f 18 19 31 30
f 19 20 32 31
f 20 21 33 32
f 21 22 34 33
f 22 23 35 34
f 23 24 36 35
f 24 13 25 36
f 25 26 38 37
f 26 27 39 38
f 27 28 40 39
f 28 29 41 40
f 29 30 42 41
f 30 31 43 42
f 31 32 44 43
f 32 33 45 44
f 33 34 46 45
f 34 35 47 46
f 35 36 48 47
f 36 25 37 48
f 37 38 50 49
f 38 39 51 50
f 39 40 52 51
f 40 41 53 52
f 41 42 54 53
f 42 43 55 54
f 43 44 56 55
f 44 45 57 56
f 45 46 58 57
f 46 47 59 58
f 47 48 60 59
f 48 37 49 60
f 49 50 62 61
f 50 51 63 62
f 53 54 65 64
f 54 55 66 65
f 55 56 67 66
f 56 57 68 67
f 59 60 70 69
f 60 49 61 70
f 61 62 72 71
f 62 63 73 72
f 64 65 76 75
f 65 66 77 76
f 66 67 78 77
f 67 68 79 78
f 69 70 82 81
f 70 61 71 82
g Neck
f 71 72 84 83
f 72 73 85 84
f 73 74 86 85
f 74 75 87 86
f 75 76 88 87
f 76 77 89 88
f 77 78 90 89
f 78 79 91 90
f 79 80 92 91
f 80 81 93 92
f 81 82 94 93
f 82 71 83 94
f 83 84 96 95
f 84 85 97 96
f 85 86 98 97
f 86 87 99 98
f 87 88 100 99
f 88 89 101 100
f 89 90 102 101
f 90 91 103 102
f 91 92 104 103
f 92 93 105 104
f 93 94 106 105
f 94 83 95 106
f 95 96 108 107
f 96 97 109 108
f 97 98 110 109
f 98 99 111 110
f 99 100 112 111
f 100 101 113 112
f 101 102 114 113
f 102 103 115 114
f 103 104 116 115
f 104 105 117 116
f 105 106 118 117
f 106 95 107 118
g Head.UnderJaw
f 107 108 120 119
f 108 109 121 120
f 109 110 122 121
f 110 111 123 122
f 111 112 124 123
f 112 113 125 124
f 113 114 126 125
f 114 115 127 126
f 115 116 128 127
f 116 117 129 128
f 117 118 130 129
f 118 107 119 130
f 119 120 132 131
f 120 121 133 132
f 122 123 135 134
f 123 124 136 135
f 124 125 137 136
f 125 126 138 137
f 126 127 139 138
f 127 128 140 139
f 129 130 142 141
f 130 119 131 142
g Head.LeftContour
f 121 122 134 144
f 121 144 143 133
g Head.RightContour
f 128 129 141 145
f 128 145 146 140
g Head
f 131 132 148 147
f 132 133 149 148
f 134 135 151 150
f 135 136 152 151
f 136 137 153 152
f 137 138 154 153
f 138 139 155 154
f 139 140 156 155
f 141 142 158 157
f 142 131 147 158
g Head.LeftContour
f 133 143 159 149
f 143 144 160 159
f 144 134 150 160
g Head.RightContour
f 140 146 162 156
f 146 145 161 162
f 145 141 157 161
g Head
f 147 148 164 163
f 148 149 165 164
f 150 151 167 166
f 151 152 168 167
f 152 153 169 168
f 153 154 170 169
f 154 155 171 170
f 155 156 172 171
f 157 158 174 173
f 158 147 163 174
g Head.LeftContour
f 149 159 175 165
f 159 160 176 175
f 160 150 166 176
g Head.RightContour
f 156 162 178 172
f 162 161 177 178
f 161 157 173 177
g Head
f 163 164 180 179
f 164 165 181 180
f 166 167 183 182
f 167 168 184 183
f 168 169 185 184
f 169 170 186 185
f 170 171 187 186
f 171 172 188 187
f 173 174 190 189
f 174 163 179 190
g Head.LeftContour
f 165 175 191 181
f 175 176 192 191
f 176 166 182 192
g Head.RightContour
f 172 178 194 188
f 178 177 193 194
f 177 173 189 193
g Head
f 183 184 199 198
f 184 185 200 199
f 185 186 201 200
f 186 187 202 201
g Head.LeftContour
f 181 191 205 196
f 191 192 206 205
f 192 182 197 206
g Head.RightContour
f 188 194 208 203
f 194 193 207 208
f 193 189 204 207
g Head
f 198 199 213 212
f 199 200 214 213
f 200 201 215 214
f 201 202 216 215
g Head.LeftContour
f 196 205 219 210
f 205 206 220 219
f 206 197 211 220
g Head.RightContour
f 203 208 222 217
f 208 207 221 222
f 207 204 218 221
g Head
f 211 212 227 226
f 212 213 228 227
f 213 214 229 228
f 214 215 230 229
f 215 216 231 230
f 216 217 232 231
g Head.LeftContour
f 210 219 235 225
f 219 220 236 235
f 220 211 226 236
g Head.RightContour
f 217 222 238 232
f 222 221 237 238
f 221 218 233 237
g Head
f 223 224 240 239
f 224 225 241 240
f 226 227 243 242
f 227 228 244 243
f 228 229 245 244
f 229 230 246 245
f 230 231 247 246
f 231 232 248 247
f 233 234 250 249
f 234 223 239 250
g Head.LeftContour
f 225 235 251 241
f 235 236 252 251
f 236 226 242 252
g Head.RightContour
f 232 238 254 248
f 238 237 253 254
f 237 233 249 253
g Head
f 239 240 256 255
f 240 241 257 256
f 242 243 259 258
f 243 244 260 259
f 244 245 261 260
f 245 246 262 261
f 246 247 263 262
f 247 248 264 263
f 249 250 266 265
f 250 239 255 266
g Head.LeftContour
f 241 251 267 257
f 251 252 268 267
f 252 242 258 268
g Head.RightContour
f 248 254 270 264
f 254 253 269 270
f 253 249 265 269
g Head
f 255 256 272 271
f 256 257 273 272
f 258 259 275 274
f 259 260 276 275
f 260 261 277 276
f 261 262 278 277
f 262 263 279 278
f 263 264 280 279
f 265 266 282 281
f 266 255 271 282
g Head.LeftContour
f 257 267 283 273
f 267 268 284 283
f 268 258 274 284
g Head.RightContour
f 264 270 286 280
f 270 269 285 286
f 269 265 281 285
g Head
f 287 271 272 273
f 287 273 283 284
f 287 284 274 275
f 287 275 276 277
f 287 277 278 279
f 287 279 280 286
f 287 286 285 281
f 287 281 282 271
g Head.LeftOrbit
f 179 180 289 288
f 180 181 290 289
f 181 196 291 290
f 196 210 292 291
f 210 225 293 292
f 225 224 294 293
f 224 223 295 294
f 223 209 296 295
f 209 195 297 296
f 195 179 288 297
g Head.LeftLid
f 288 289 299 298
f 289 290 300 299
f 290 291 301 300
f 291 292 302 301
f 292 293 303 302
f 293 294 304 303
f 294 295 305 304
f 295 296 306 305
f 296 297 307 306
f 297 288 298 307
g Head.LeftEye
f 308 298 299 300
f 308 300 301 302
f 308 302 303 304
f 308 304 305 306
f 308 306 307 298
g Head.RightOrbit
f 309 310 190 179
f 310 311 189 190
f 311 312 204 189
f 312 313 218 204
f 313 314 233 218
f 314 315 234 233
f 315 316 223 234
f 316 317 209 223
f 317 318 195 209
f 318 309 179 195
g Head.RightLid
f 319 320 310 309
f 320 321 311 310
f 321 322 312 311
f 322 323 313 312
f 323 324 314 313
f 324 325 315 314
f 325 326 316 315
f 326 327 317 316
f 327 328 318 317
f 328 319 309 318
g Head.RightEye
f 321 320 319 329
f 323 322 321 329
f 325 324 323 329
f 327 326 325 329
f 319 328 327 329
g Head.LeftEar.Root
f 182 183 331 330
f 183 198 332 331
f 198 212 333 332
f 212 211 334 333
f 211 197 335 334
f 197 182 330 335
g Head.LeftEar.Rim
f 330 331 337 336
f 331 332 338 337
f 332 333 339 338
f 333 334 340 339
f 334 335 341 340
f 335 330 336 341
g Head.LeftEar.Bowl
f 342 336 337 338
f 342 338 339 340
f 342 340 341 336
g Head.RightEar.Root
f 343 344 187 188
f 344 345 202 187
f 345 346 216 202
f 346 347 217 216
f 347 348 203 217
f 348 343 188 203
g Head.RightEar.Rim
f 349 350 344 343
f 350 351 345 344
f 351 352 346 345
f 352 353 347 346
f 353 354 348 347
f 354 349 343 348
g Head.RightEar.Bowl
f 351 350 349 355
f 353 352 351 355
f 349 354 353 355
g LeftLeg
f 357 358 2 1
f 358 359 3 2
f 359 360 4 3
f 360 361 5 4
f 361 362 6 5
f 362 363 7 6
f 363 364 356 7
f 364 357 1 356
f 365 366 358 357
f 366 367 359 358
f 367 368 360 359
f 368 369 361 360
f 369 370 362 361
f 370 371 363 362
f 371 372 364 363
f 372 365 357 364
f 373 374 366 365
f 374 375 367 366
f 375 376 368 367
f 376 377 369 368
f 377 378 370 369
f 378 379 371 370
f 379 380 372 371
f 380 373 365 372
f 381 382 374 373
f 382 383 375 374
f 383 384 376 375
f 384 385 377 376
f 385 386 378 377
f 386 387 379 378
f 387 388 380 379
f 388 381 373 380
f 389 390 382 381
f 390 391 383 382
f 391 392 384 383
f 392 393 385 384
f 393 394 386 385
f 394 395 387 386
f 395 396 388 387
f 396 389 381 388
f 397 398 390 389
f 398 399 391 390
f 399 400 392 391
f 400 401 393 392
f 401 402 394 393
f 402 403 395 394
f 403 404 396 395
f 404 397 389 396
f 405 406 398 397
f 406 407 399 398
f 407 408 400 399
f 408 409 401 400
f 409 410 402 401
f 410 411 403 402
f 411 412 404 403
f 412 405 397 404
f 413 414 406 405
f 414 415 407 406
f 415 416 408 407
f 416 417 409 408
f 417 418 410 409
f 418 419 411 410
f 419 420 412 411
f 420 413 405 412
f 421 422 414 413
f 422 423 415 414
f 423 424 416 415
f 424 425 417 416
f 425 426 418 417
f 426 427 419 418
f 427 428 420 419
f 428 421 413 420
g LeftSole
f 423 422 421 429
f 425 424 423 429
f 427 426 425 429
f 421 428 427 429
g LeftArm
f 51 52 431 430
f 52 53 432 431
f 53 64 433 432
f 64 75 434 433
f 75 74 435 434
f 74 73 436 435
f 73 63 437 436
f 63 51 430 437
f 430 431 439 438
f 431 432 440 439
f 432 433 441 440
f 433 434 442 441
f 434 435 443 442
f 435 436 444 443
f 436 437 445 444
f 437 430 438 445
f 438 439 447 446
f 439 440 448 447
f 440 441 449 448
f 441 442 450 449
f 442 443 451 450
f 443 444 452 451
f 444 445 453 452
f 445 438 446 453
f 446 447 455 454
f 447 448 456 455
f 448 449 457 456
f 449 450 458 457
f 450 451 459 458
f 451 452 460 459
f 452 453 461 460
f 453 446 454 461
f 454 455 463 462
f 455 456 464 463
f 456 457 465 464
f 457 458 466 465
f 458 459 467 466
f 459 460 468 467
f 460 461 469 468
f 461 454 462 469
g LeftHand
f 462 463 471 470
f 463 464 472 471
f 464 465 473 472
f 465 466 474 473
f 466 467 475 474
f 467 468 476 475
f 468 469 477 476
f 469 462 470 477
f 470 471 479 478
f 471 472 480 479
f 472 473 481 480
f 473 474 482 481
f 474 475 483 482
f 475 476 484 483
f 476 477 485 484
f 477 470 478 485
f 478 479 487 486
f 479 480 488 487
f 480 481 489 488
f 481 482 490 489
f 482 483 491 490
f 483 484 492 491
f 486 487 495 494
f 487 488 496 495
f 488 489 497 496
f 489 490 498 497
f 490 491 499 498
f 491 492 500 499
f 492 493 501 500
f 493 486 494 501
f 502 494 495 496
f 502 496 497 498
f 502 498 499 500
f 502 500 501 494
g LeftThumb
f 484 485 504 503
f 485 478 505 504
f 478 486 506 505
f 486 493 507 506
f 493 492 508 507
f 492 484 503 508
f 509 503 504 505
f 509 505 506 507
f 509 507 508 503
g RightLeg
f 1 12 511 510
f 12 11 512 511
f 11 10 513 512
f 10 9 514 513
f 9 8 515 514
f 8 7 516 515
f 7 356 517 516
f 356 1 510 517
f 510 511 519 518
f 511 512 520 519
f 512 513 521 520
f 513 514 522 521
f 514 515 523 522
f 515 516 524 523
f 516 517 525 524
f 517 510 518 525
f 518 519 527 526
f 519 520 528 527
f 520 521 529 528
f 521 522 530 529
f 522 523 531 530
f 523 524 532 531
f 524 525 533 532
f 525 518 526 533
f 526 527 535 534
f 527 528 536 535
f 528 529 537 536
f 529 530 538 537
f 530 531 539 538
f 531 532 540 539
f 532 533 541 540
f 533 526 534 541
f 534 535 543 542
f 535 536 544 543
f 536 537 545 544
f 537 538 546 545
f 538 539 547 546
f 539 540 548 547
f 540 541 549 548
f 541 534 542 549
f 542 543 551 550
f 543 544 552 551
f 544 545 553 552
f 545 546 554 553
f 546 547 555 554
f 547 548 556 555
f 548 549 557 556
f 549 542 550 557
f 550 551 559 558
f 551 552 560 559
f 552 553 561 560
f 553 554 562 561
f 554 555 563 562
f 555 556 564 563
f 556 557 565 564
f 557 550 558 565
f 558 559 567 566
f 559 560 568 567
f 560 561 569 568
f 561 562 570 569
f 562 563 571 570
f 563 564 572 571
f 564 565 573 572
f 565 558 566 573
f 566 567 575 574
f 567 568 576 575
f 568 569 577 576
f 569 570 578 577
f 570 571 579 578
f 571 572 580 579
f 572 573 581 580
f 573 566 574 581
g RightSole
f 582 574 575 576
f 582 576 577 578
f 582 578 579 580
f 582 580 581 574
g RightArm
f 583 584 58 59
f 584 585 57 58
f 585 586 68 57
f 586 587 79 68
f 587 588 80 79
f 588 589 81 80
f 589 590 69 81
f 590 583 59 69
f 591 592 584 583
f 592 593 585 584
f 593 594 586 585
f 594 595 587 586
f 595 596 588 587
f 596 597 589 588
f 597 598 590 589
f 598 591 583 590
f 599 600 592 591
f 600 601 593 592
f 601 602 594 593
f 602 603 595 594
f 603 604 596 595
f 604 605 597 596
f 605 606 598 597
f 606 599 591 598
f 607 608 600 599
f 608 609 601 600
f 609 610 602 601
f 610 611 603 602
f 611 612 604 603
f 612 613 605 604
f 613 614 606 605
f 614 607 599 606
f 615 616 608 607
f 616 617 609 608
f 617 618 610 609
f 618 619 611 610
f 619 620 612 611
f 620 621 613 612
f 621 622 614 613
f 622 615 607 614
g RightHand
f 623 624 616 615
f 624 625 617 616
f 625 626 618 617
f 626 627 619 618
f 627 628 620 619
f 628 629 621 620
f 629 630 622 621
f 630 623 615 622
f 631 632 624 623
f 632 633 625 624
f 633 634 626 625
f 634 635 627 626
f 635 636 628 627
f 636 637 629 628
f 637 638 630 629
f 638 631 623 630
f 639 640 632 631
f 640 641 633 632
f 641 642 634 633
f 642 643 635 634
f 643 644 636 635
f 644 645 637 636
f 647 648 640 639
f 648 649 641 640
f 649 650 642 641
f 650 651 643 642
f 651 652 644 643
f 652 653 645 644
f 653 654 646 645
f 654 647 639 646
f 649 648 647 655
f 651 650 649 655
f 653 652 651 655
f 647 654 653 655
g RightThumb
f 656 657 638 637
f 657 658 631 638
f 658 659 639 631
f 659 660 646 639
f 660 661 645 646
f 661 656 637 645
f 658 657 656 662
f 660 659 658 662
f 656 661 660 662
