# BASE-45 FEMALE | meters, Y-up, +Z forward | editable quads
o Base45Female
v 0 0.99 0.129946
v 0.1148 1.025 0.112379
v 0.198839 1.025 0.064882
v 0.2296 1.025 0
v 0.198839 1.025 -0.091971
v 0.1148 1.025 -0.149944
v 0 0.99 -0.164934
v -0.1148 1.025 -0.149944
v -0.198839 1.025 -0.091971
v -0.2296 1.025 0
v -0.198839 1.025 0.064882
v -0.1148 1.025 0.112379
v 0 1.115 0.121364
v 0.1026 1.115 0.105105
v 0.177708 1.115 0.060682
v 0.2052 1.115 0
v 0.177708 1.115 -0.080407
v 0.1026 1.115 -0.133588
v 0 1.115 -0.151799
v -0.1026 1.115 -0.133588
v -0.177708 1.115 -0.080407
v -0.2052 1.115 0
v -0.177708 1.115 0.060682
v -0.1026 1.115 0.105105
v 0 1.24 0.101233
v 0.06355 1.24 0.087776
v 0.110072 1.24 0.05066
v 0.1271 1.24 0
v 0.110072 1.24 -0.053439
v 0.06355 1.24 -0.092439
v 0 1.24 -0.106587
v -0.06355 1.24 -0.092439
v -0.110072 1.24 -0.053439
v -0.1271 1.24 0
v -0.110072 1.24 0.05066
v -0.06355 1.24 0.087776
v 0 1.4 0.161204
v 0.092 1.4 0.165941
v 0.159349 1.4 0.085207
v 0.184 1.4 0
v 0.159349 1.4 -0.059294
v 0.092 1.4 -0.1027
v 0 1.4 -0.118588
v -0.092 1.4 -0.1027
v -0.159349 1.4 -0.059294
v -0.184 1.4 0
v -0.159349 1.4 0.085207
v -0.092 1.4 0.165941
v 0 1.46 0.152812
v 0.11025 1.46 0.15347
v 0.190959 1.46 0.074335
v 0.2205 1.46 0
v 0.190959 1.46 -0.059911
v 0.11025 1.46 -0.103768
v 0 1.46 -0.119821
v -0.11025 1.46 -0.103768
v -0.190959 1.46 -0.059911
v -0.2205 1.46 0
v -0.190959 1.46 0.074335
v -0.11025 1.46 0.15347
v 0 1.535 0.131644
v 0.1166 1.535 0.11763
v 0.201957 1.535 0.065148
v 0.201957 1.535 -0.059997
v 0.1166 1.535 -0.103918
v 0 1.535 -0.119995
v -0.1166 1.535 -0.103918
v -0.201957 1.535 -0.059997
v -0.201957 1.535 0.065148
v -0.1166 1.535 0.11763
v 0 1.61 0.110058
v 0.10575 1.61 0.095477
v 0.183164 1.61 0.055014
v 0.2115 1.61 0
v 0.183164 1.61 -0.055
v 0.10575 1.61 -0.095263
v 0 1.61 -0.11
v -0.10575 1.61 -0.095263
v -0.183164 1.61 -0.055
v -0.2115 1.61 0
v -0.183164 1.61 0.055014
v -0.10575 1.61 0.095477
v 0 1.65 0.058003
v 0.044 1.65 0.047824
v 0.07621 1.65 0.020002
v 0.088 1.65 -0.018
v 0.07621 1.65 -0.056
v 0.044 1.65 -0.083818
v 0 1.65 -0.094
v -0.044 1.65 -0.083818
v -0.07621 1.65 -0.056
v -0.088 1.65 -0.018
v -0.07621 1.65 0.020002
v -0.044 1.65 0.047824
v 0 1.715 0.06
v 0.04 1.715 0.050086
v 0.069282 1.715 0.023
v 0.08 1.715 -0.014
v 0.069282 1.715 -0.051
v 0.04 1.715 -0.078086
v 0 1.715 -0.088
v -0.04 1.715 -0.078086
v -0.069282 1.715 -0.051
v -0.08 1.715 -0.014
v -0.069282 1.715 0.023
v -0.04 1.715 0.050086
v 0 1.77 0.061
v 0.036 1.772679 0.051488
v 0.062354 1.78 0.0255
v 0.072 1.79 -0.01
v 0.062354 1.7925 -0.05025
v 0.036 1.781651 -0.085738
v 0 1.775 -0.1
v -0.036 1.781651 -0.085738
v -0.062354 1.7925 -0.05025
v -0.072 1.79 -0.01
v -0.062354 1.78 0.0255
v -0.036 1.772679 0.051488
v 0 1.755 0.1204
v 0.0378 1.760272 0.111195
v 0.072342 1.7734 0.0894
v 0.1062 1.7966 -0.019
v 0.087942 1.8089 -0.07735
v 0.0516 1.81036 -0.111845
v 0 1.81 -0.125
v -0.0516 1.81036 -0.111845
v -0.087942 1.8089 -0.07735
v -0.1062 1.7966 -0.019
v -0.072342 1.7734 0.0894
v -0.0378 1.760272 0.111195
v 0 1.75 0.16
v 0.039 1.757 0.151
v 0.079373 1.775927 0.129012
v 0.126902 1.807585 -0.017642
v 0.105 1.82525 -0.09775
v 0.062 1.83575 -0.13625
v 0 1.84 -0.151
v -0.062 1.83575 -0.13625
v -0.105 1.82525 -0.09775
v -0.126902 1.807585 -0.017642
v -0.079373 1.775927 0.129012
v -0.039 1.757 0.151
v 0.127862 1.813864 -0.045652
v 0.118726 1.814698 -0.073324
v -0.127862 1.813864 -0.045652
v -0.118726 1.814698 -0.073324
v 0.105675 1.791771 0.09941
v 0.112317 1.796789 0.053737
v -0.105675 1.791771 0.09941
v -0.112317 1.796789 0.053737
v 0 1.785 0.182
v 0.054 1.787 0.174
v 0.102218 1.798442 0.153556
v 0.14367 1.827302 -0.005317
v 0.126 1.849 -0.0895
v 0.073 1.864 -0.1535
v 0 1.87 -0.178
v -0.073 1.864 -0.1535
v -0.126 1.849 -0.0895
v -0.14367 1.827302 -0.005317
v -0.102218 1.798442 0.153556
v -0.054 1.787 0.174
v 0.142975 1.832212 -0.035573
v 0.136742 1.838399 -0.063919
v -0.142975 1.832212 -0.035573
v -0.136742 1.838399 -0.063919
v 0.122307 1.809896 0.110797
v 0.135312 1.819081 0.055058
v -0.122307 1.809896 0.110797
v -0.135312 1.819081 0.055058
v 0 1.81 0.184
v 0.073 1.815091 0.173
v 0.120294 1.826042 0.15182
v 0.159034 1.849245 0.004052
v 0.143 1.86625 -0.09875
v 0.077 1.88575 -0.17225
v 0 1.895 -0.199
v -0.077 1.88575 -0.17225
v -0.143 1.86625 -0.09875
v -0.159034 1.849245 0.004052
v -0.120294 1.826042 0.15182
v -0.073 1.815091 0.173
v 0.158645 1.852953 -0.030319
v 0.1531 1.857536 -0.065917
v -0.158645 1.852953 -0.030319
v -0.1531 1.857536 -0.065917
v 0.140054 1.834916 0.114836
v 0.152936 1.843266 0.060515
v -0.140054 1.834916 0.114836
v -0.152936 1.843266 0.060515
v 0 1.825 0.183
v 0.0805 1.830359 0.171802
v 0.13943 1.845 0.151329
v 0.174 1.873 0
v 0.145 1.88625 -0.10675
v 0.081 1.90875 -0.18725
v 0 1.92 -0.217
v -0.081 1.90875 -0.18725
v -0.145 1.88625 -0.10675
v -0.174 1.873 0
v -0.13943 1.845 0.151329
v -0.0805 1.830359 0.171802
v 0.171678 1.874131 -0.031189
v 0.161669 1.879584 -0.071255
v -0.171678 1.874131 -0.031189
v -0.161669 1.879584 -0.071255
v 0.158261 1.864899 0.112613
v 0.169985 1.873786 0.059743
v -0.158261 1.864899 0.112613
v -0.169985 1.873786 0.059743
v 0 1.89 0.23
v 0.174071 1.9125 0.135168
v 0.201 1.935 0
v 0.174071 1.935 -0.11875
v 0.1005 1.94134 -0.204096
v 0 1.945 -0.235
v -0.1005 1.94134 -0.204096
v -0.174071 1.935 -0.11875
v -0.201 1.935 0
v -0.174071 1.9125 0.135168
v 0.198844 1.935 -0.034695
v 0.18947 1.934998 -0.079279
v -0.198844 1.935 -0.034695
v -0.18947 1.934998 -0.079279
v 0.181019 1.915256 0.104826
v 0.191036 1.922956 0.056162
v -0.181019 1.915256 0.104826
v -0.191036 1.922956 0.056162
v 0 1.935 0.192
v 0.182731 1.955 0.130989
v 0.211 1.975 0
v 0.182731 1.975 -0.1225
v 0.1055 1.975 -0.212176
v 0 1.975 -0.245
v -0.1055 1.975 -0.212176
v -0.182731 1.975 -0.1225
v -0.211 1.975 0
v -0.182731 1.955 0.130989
v 0.208736 1.975 -0.03579
v 0.198897 1.975 -0.081783
v -0.208736 1.975 -0.03579
v -0.198897 1.975 -0.081783
v 0.193947 1.960509 0.100806
v 0.204175 1.967092 0.053442
v -0.193947 1.960509 0.100806
v -0.204175 1.967092 0.053442
v 0 1.985 0.195
v 0.109 1.988349 0.167005
v 0.188794 1.9975 0.12815
v 0.218 2.01 0
v 0.188794 2.015 -0.1225
v 0.109 2.01866 -0.212176
v 0 2.02 -0.245
v -0.109 2.01866 -0.212176
v -0.188794 2.015 -0.1225
v -0.218 2.01 0
v -0.188794 1.9975 0.12815
v -0.109 1.988349 0.167005
v 0.215661 2.010427 -0.03579
v 0.205496 2.012228 -0.081783
v -0.215661 2.010427 -0.03579
v -0.205496 2.012228 -0.081783
v 0.202334 2.0015 0.104732
v 0.213992 2.006 0.052238
v -0.202334 2.0015 0.104732
v -0.213992 2.006 0.052238
v 0 2.049 0.187
v 0.1055 2.050072 0.169
v 0.182731 2.053 0.13
v 0.211 2.057 0
v 0.182731 2.059 -0.118
v 0.1055 2.060464 -0.204382
v 0 2.061 -0.236
v -0.1055 2.060464 -0.204382
v -0.182731 2.059 -0.118
v -0.211 2.057 0
v -0.182731 2.053 0.13
v -0.1055 2.050072 0.169
v 0.208736 2.057171 -0.034476
v 0.198897 2.057891 -0.078778
v -0.208736 2.057171 -0.034476
v -0.198897 2.057891 -0.078778
v 0.195837 2.05428 0.106278
v 0.207121 2.05572 0.053008
v -0.195837 2.05428 0.106278
v -0.207121 2.05572 0.053008
v 0 2.1 0.166
v 0.096 2.10067 0.151
v 0.166277 2.1025 0.118
v 0.192 2.105 0
v 0.166277 2.1075 -0.1065
v 0.096 2.10933 -0.184463
v 0 2.11 -0.213
v -0.096 2.10933 -0.184463
v -0.166277 2.1075 -0.1065
v -0.192 2.105 0
v -0.166277 2.1025 0.118
v -0.096 2.10067 0.151
v 0.18994 2.105213 -0.031116
v 0.180987 2.106114 -0.071101
v -0.18994 2.105213 -0.031116
v -0.180987 2.106114 -0.071101
v 0.178203 2.1033 0.096663
v 0.18847 2.1042 0.048207
v -0.178203 2.1033 0.096663
v -0.18847 2.1042 0.048207
v 0 2.151 0.124
v 0.0765 2.151536 0.111
v 0.132502 2.153 0.083
v 0.153 2.155 0
v 0.132502 2.1565 -0.0855
v 0.0765 2.157598 -0.14809
v 0 2.158 -0.171
v -0.0765 2.157598 -0.14809
v -0.132502 2.1565 -0.0855
v -0.153 2.155 0
v -0.132502 2.153 0.083
v -0.0765 2.151536 0.111
v 0.151359 2.155128 -0.02498
v 0.144224 2.155668 -0.057081
v -0.151359 2.155128 -0.02498
v -0.144224 2.155668 -0.057081
v 0.142005 2.15364 0.067603
v 0.150187 2.15436 0.033725
v -0.142005 2.15364 0.067603
v -0.150187 2.15436 0.033725
v 0 2.185 0.053
v 0.0415 2.185268 0.045899
v 0.07188 2.186 0.0265
v 0.083 2.187 0
v 0.07188 2.187 -0.0575
v 0.0415 2.187 -0.099593
v 0 2.187 -0.115
v -0.0415 2.187 -0.099593
v -0.07188 2.187 -0.0575
v -0.083 2.187 0
v -0.07188 2.186 0.0265
v -0.0415 2.185268 0.045899
v 0.08211 2.187 -0.0168
v 0.078239 2.187 -0.038388
v -0.08211 2.187 -0.0168
v -0.078239 2.187 -0.038388
v 0.077035 2.18632 0.020734
v 0.081474 2.18668 0.010368
v -0.077035 2.18632 0.020734
v -0.081474 2.18668 0.010368
v 0 2.2 -0.03
v 0.052503 1.896645 0.178953
v 0.102 1.882 0.166454
v 0.151497 1.896645 0.146641
v 0.172 1.915333 0.136366
v 0.172 1.948667 0.136966
v 0.151497 1.967355 0.147914
v 0.102 1.982 0.168254
v 0.052503 1.967355 0.180226
v 0.032 1.948667 0.182662
v 0.032 1.915333 0.182062
v 0.062402 1.903716 0.17626
v 0.102 1.892 0.165634
v 0.141598 1.903716 0.150411
v 0.158 1.918667 0.142818
v 0.158 1.945333 0.143298
v 0.141598 1.960284 0.151429
v 0.102 1.972 0.167074
v 0.062402 1.960284 0.177279
v 0.046 1.945333 0.179854
v 0.046 1.918667 0.179374
v 0.102 1.932 0.166354
v -0.052503 1.896645 0.178953
v -0.102 1.882 0.166454
v -0.151497 1.896645 0.146641
v -0.172 1.915333 0.136366
v -0.172 1.948667 0.136966
v -0.151497 1.967355 0.147914
v -0.102 1.982 0.168254
v -0.052503 1.967355 0.180226
v -0.032 1.948667 0.182662
v -0.032 1.915333 0.182062
v -0.062402 1.903716 0.17626
v -0.102 1.892 0.165634
v -0.141598 1.903716 0.150411
v -0.158 1.918667 0.142818
v -0.158 1.945333 0.143298
v -0.141598 1.960284 0.151429
v -0.102 1.972 0.167074
v -0.062402 1.960284 0.177279
v -0.046 1.945333 0.179854
v -0.046 1.918667 0.179374
v -0.102 1.932 0.166354
v 0.21925 1.894 0.033
v 0.2365 1.9 -0.01
v 0.259 1.948 -0.02
v 0.244 1.991 -0.005
v 0.2185 1.988 0.039
v 0.21175 1.944 0.063
v 0.217733 1.9155 0.01827
v 0.227565 1.91892 -0.00624
v 0.24039 1.94628 -0.01194
v 0.23184 1.97079 -0.00339
v 0.217305 1.96908 0.02169
v 0.213457 1.944 0.03537
v 0.225 1.944 0.012
v -0.21925 1.894 0.033
v -0.2365 1.9 -0.01
v -0.259 1.948 -0.02
v -0.244 1.991 -0.005
v -0.2185 1.988 0.039
v -0.21175 1.944 0.063
v -0.217733 1.9155 0.01827
v -0.227565 1.91892 -0.00624
v -0.24039 1.94628 -0.01194
v -0.23184 1.97079 -0.00339
v -0.217305 1.96908 0.02169
v -0.213457 1.944 0.03537
v -0.225 1.944 0.012
v 0 0.975 0
v 0.065941 0.9 0.07566
v 0.1375 0.9 0.107
v 0.209059 0.9 0.07566
v 0.2387 0.9 0
v 0.209059 0.9 -0.081406
v 0.1375 0.9 -0.114489
v 0.065941 0.9 -0.081406
v 0.0363 0.9 0
v 0.09925 0.625 0.07874
v 0.153531 0.625 0.101
v 0.207813 0.625 0.07874
v 0.230297 0.625 0.025
v 0.207813 0.625 -0.035104
v 0.153531 0.625 -0.06
v 0.09925 0.625 -0.035104
v 0.076766 0.625 0.025
v 0.098185 0.585 0.079447
v 0.153 0.585 0.102
v 0.207815 0.585 0.079447
v 0.23052 0.585 0.025
v 0.207815 0.585 -0.029447
v 0.153 0.585 -0.052
v 0.098185 0.585 -0.029447
v 0.07548 0.585 0.025
v 0.100176 0.545 0.07374
v 0.154964 0.545 0.096
v 0.209752 0.545 0.07374
v 0.232446 0.545 0.02
v 0.209752 0.545 -0.035154
v 0.154964 0.545 -0.058
v 0.100176 0.545 -0.035154
v 0.077482 0.545 0.02
v 0.104332 0.43 0.061518
v 0.165275 0.43 0.087
v 0.226219 0.43 0.061518
v 0.251462 0.43 0
v 0.226219 0.43 -0.06364
v 0.165275 0.43 -0.09
v 0.104332 0.43 -0.06364
v 0.079089 0.43 0
v 0.124745 0.16 0.030962
v 0.17 0.16 0.05
v 0.215255 0.16 0.030962
v 0.234 0.16 -0.015
v 0.215255 0.16 -0.064497
v 0.17 0.16 -0.085
v 0.124745 0.16 -0.064497
v 0.106 0.16 -0.015
v 0.109896 0.09 0.156421
v 0.17 0.09 0.215
v 0.230104 0.09 0.156421
v 0.255 0.09 0.015
v 0.230104 0.09 -0.052175
v 0.17 0.09 -0.08
v 0.109896 0.09 -0.052175
v 0.085 0.09 0.015
v 0.10636 0.025 0.167028
v 0.17 0.025 0.23
v 0.23364 0.025 0.167028
v 0.26 0.025 0.015
v 0.23364 0.025 -0.055711
v 0.17 0.025 -0.085
v 0.10636 0.025 -0.055711
v 0.08 0.025 0.015
v 0.109896 0 0.163492
v 0.17 0 0.225
v 0.230104 0 0.163492
v 0.255 0 0.015
v 0.230104 0 -0.052175
v 0.17 0 -0.08
v 0.109896 0 -0.052175
v 0.085 0 0.015
v 0.17 0 0.049704
v 0.283497 1.4814 0.064904
v 0.284542 1.459198 0
v 0.283497 1.4814 -0.064904
v 0.2787 1.535 -0.091788
v 0.283497 1.5886 -0.064904
v 0.284965 1.610802 0
v 0.283497 1.5886 0.064904
v 0.2787 1.535 0.091788
v 0.512549 1.49618 0.03858
v 0.514269 1.4801 0
v 0.512549 1.49618 -0.03858
v 0.509 1.535 -0.05456
v 0.512549 1.57382 -0.03858
v 0.514269 1.5899 0
v 0.512549 1.57382 0.03858
v 0.509 1.535 0.05456
v 0.550068 1.496816 0.037335
v 0.551797 1.481 0
v 0.550068 1.496816 -0.037335
v 0.5466 1.535 -0.0528
v 0.550068 1.573184 -0.037335
v 0.551797 1.589 0
v 0.550068 1.573184 0.037335
v 0.5466 1.535 0.0528
v 0.587908 1.494907 0.039202
v 0.589602 1.4783 0
v 0.587908 1.494907 -0.039202
v 0.5842 1.535 -0.05544
v 0.587908 1.575093 -0.039202
v 0.589602 1.5917 0
v 0.587908 1.575093 0.039202
v 0.5842 1.535 0.05544
v 0.700468 1.496816 0.034846
v 0.702197 1.481 0
v 0.700468 1.496816 -0.034846
v 0.697 1.535 -0.04928
v 0.700468 1.573184 -0.034846
v 0.702197 1.589 0
v 0.700468 1.573184 0.034846
v 0.697 1.535 0.04928
v 0.820606 1.513363 0.023646
v 0.821695 1.5044 0
v 0.820606 1.513363 -0.023646
v 0.8192 1.535 -0.03344
v 0.820606 1.556637 -0.023646
v 0.821695 1.5656 0
v 0.820606 1.556637 0.023646
v 0.8192 1.535 0.03344
v 0.872378 1.512726 0.039824
v 0.87351 1.5035 0
v 0.872378 1.512726 -0.039824
v 0.8709 1.535 -0.05632
v 0.872378 1.557274 -0.039824
v 0.87351 1.5665 0
v 0.872378 1.557274 0.039824
v 0.8709 1.535 0.05632
v 0.928364 1.516545 0.041691
v 0.929231 1.5089 0
v 0.928364 1.516545 -0.041691
v 0.9273 1.535 -0.05896
v 0.928364 1.553455 -0.041691
v 0.929231 1.5611 0
v 0.928364 1.553455 0.041691
v 0.9273 1.535 0.05896
v 1.012392 1.522908 0.031113
v 1.012828 1.5179 0
v 1.012392 1.522908 -0.031113
v 1.0119 1.535 -0.044
v 1.012392 1.547091 -0.031113
v 1.012828 1.5521 0
v 1.012392 1.547091 0.031113
v 1.0119 1.535 0.044
v 1.0119 1.535 0
v 0.910826 1.518023 0.116473
v 0.911952 1.508 0.123896
v 0.913231 1.497977 0.116473
v 0.93839 1.499695 0.117313
v 0.937332 1.508 0.125084
v 0.936378 1.516305 0.117313
v 0.924642 1.508 0.119425
v -0.065941 0.9 0.07566
v -0.1375 0.9 0.107
v -0.209059 0.9 0.07566
v -0.2387 0.9 0
v -0.209059 0.9 -0.081406
v -0.1375 0.9 -0.114489
v -0.065941 0.9 -0.081406
v -0.0363 0.9 0
v -0.09925 0.625 0.07874
v -0.153531 0.625 0.101
v -0.207813 0.625 0.07874
v -0.230297 0.625 0.025
v -0.207813 0.625 -0.035104
v -0.153531 0.625 -0.06
v -0.09925 0.625 -0.035104
v -0.076766 0.625 0.025
v -0.098185 0.585 0.079447
v -0.153 0.585 0.102
v -0.207815 0.585 0.079447
v -0.23052 0.585 0.025
v -0.207815 0.585 -0.029447
v -0.153 0.585 -0.052
v -0.098185 0.585 -0.029447
v -0.07548 0.585 0.025
v -0.100176 0.545 0.07374
v -0.154964 0.545 0.096
v -0.209752 0.545 0.07374
v -0.232446 0.545 0.02
v -0.209752 0.545 -0.035154
v -0.154964 0.545 -0.058
v -0.100176 0.545 -0.035154
v -0.077482 0.545 0.02
v -0.104332 0.43 0.061518
v -0.165275 0.43 0.087
v -0.226219 0.43 0.061518
v -0.251462 0.43 0
v -0.226219 0.43 -0.06364
v -0.165275 0.43 -0.09
v -0.104332 0.43 -0.06364
v -0.079089 0.43 0
v -0.124745 0.16 0.030962
v -0.17 0.16 0.05
v -0.215255 0.16 0.030962
v -0.234 0.16 -0.015
v -0.215255 0.16 -0.064497
v -0.17 0.16 -0.085
v -0.124745 0.16 -0.064497
v -0.106 0.16 -0.015
v -0.109896 0.09 0.156421
v -0.17 0.09 0.215
v -0.230104 0.09 0.156421
v -0.255 0.09 0.015
v -0.230104 0.09 -0.052175
v -0.17 0.09 -0.08
v -0.109896 0.09 -0.052175
v -0.085 0.09 0.015
v -0.10636 0.025 0.167028
v -0.17 0.025 0.23
v -0.23364 0.025 0.167028
v -0.26 0.025 0.015
v -0.23364 0.025 -0.055711
v -0.17 0.025 -0.085
v -0.10636 0.025 -0.055711
v -0.08 0.025 0.015
v -0.109896 0 0.163492
v -0.17 0 0.225
v -0.230104 0 0.163492
v -0.255 0 0.015
v -0.230104 0 -0.052175
v -0.17 0 -0.08
v -0.109896 0 -0.052175
v -0.085 0 0.015
v -0.17 0 0.049704
v -0.283497 1.4814 0.064904
v -0.284542 1.459198 0
v -0.283497 1.4814 -0.064904
v -0.2787 1.535 -0.091788
v -0.283497 1.5886 -0.064904
v -0.284965 1.610802 0
v -0.283497 1.5886 0.064904
v -0.2787 1.535 0.091788
v -0.512549 1.49618 0.03858
v -0.514269 1.4801 0
v -0.512549 1.49618 -0.03858
v -0.509 1.535 -0.05456
v -0.512549 1.57382 -0.03858
v -0.514269 1.5899 0
v -0.512549 1.57382 0.03858
v -0.509 1.535 0.05456
v -0.550068 1.496816 0.037335
v -0.551797 1.481 0
v -0.550068 1.496816 -0.037335
v -0.5466 1.535 -0.0528
v -0.550068 1.573184 -0.037335
v -0.551797 1.589 0
v -0.550068 1.573184 0.037335
v -0.5466 1.535 0.0528
v -0.587908 1.494907 0.039202
v -0.589602 1.4783 0
v -0.587908 1.494907 -0.039202
v -0.5842 1.535 -0.05544
v -0.587908 1.575093 -0.039202
v -0.589602 1.5917 0
v -0.587908 1.575093 0.039202
v -0.5842 1.535 0.05544
v -0.700468 1.496816 0.034846
v -0.702197 1.481 0
v -0.700468 1.496816 -0.034846
v -0.697 1.535 -0.04928
v -0.700468 1.573184 -0.034846
v -0.702197 1.589 0
v -0.700468 1.573184 0.034846
v -0.697 1.535 0.04928
v -0.820606 1.513363 0.023646
v -0.821695 1.5044 0
v -0.820606 1.513363 -0.023646
v -0.8192 1.535 -0.03344
v -0.820606 1.556637 -0.023646
v -0.821695 1.5656 0
v -0.820606 1.556637 0.023646
v -0.8192 1.535 0.03344
v -0.872378 1.512726 0.039824
v -0.87351 1.5035 0
v -0.872378 1.512726 -0.039824
v -0.8709 1.535 -0.05632
v -0.872378 1.557274 -0.039824
v -0.87351 1.5665 0
v -0.872378 1.557274 0.039824
v -0.8709 1.535 0.05632
v -0.928364 1.516545 0.041691
v -0.929231 1.5089 0
v -0.928364 1.516545 -0.041691
v -0.9273 1.535 -0.05896
v -0.928364 1.553455 -0.041691
v -0.929231 1.5611 0
v -0.928364 1.553455 0.041691
v -0.9273 1.535 0.05896
v -1.012392 1.522908 0.031113
v -1.012828 1.5179 0
v -1.012392 1.522908 -0.031113
v -1.0119 1.535 -0.044
v -1.012392 1.547091 -0.031113
v -1.012828 1.5521 0
v -1.012392 1.547091 0.031113
v -1.0119 1.535 0.044
v -1.0119 1.535 0
v -0.910826 1.518023 0.116473
v -0.911952 1.508 0.123896
v -0.913231 1.497977 0.116473
v -0.93839 1.499695 0.117313
v -0.937332 1.508 0.125084
v -0.936378 1.516305 0.117313
v -0.924642 1.508 0.119425
g Torso
f 1 2 14 13
f 2 3 15 14
f 3 4 16 15
f 4 5 17 16
f 5 6 18 17
f 6 7 19 18
f 7 8 20 19
f 8 9 21 20
f 9 10 22 21
f 10 11 23 22
f 11 12 24 23
f 12 1 13 24
f 13 14 26 25
f 14 15 27 26
f 15 16 28 27
f 16 17 29 28
f 17 18 30 29
f 18 19 31 30
f 19 20 32 31
f 20 21 33 32
f 21 22 34 33
f 22 23 35 34
f 23 24 36 35
f 24 13 25 36
f 25 26 38 37
f 26 27 39 38
f 27 28 40 39
f 28 29 41 40
f 29 30 42 41
f 30 31 43 42
f 31 32 44 43
f 32 33 45 44
f 33 34 46 45
f 34 35 47 46
f 35 36 48 47
f 36 25 37 48
f 37 38 50 49
f 38 39 51 50
f 39 40 52 51
f 40 41 53 52
f 41 42 54 53
f 42 43 55 54
f 43 44 56 55
f 44 45 57 56
f 45 46 58 57
f 46 47 59 58
f 47 48 60 59
f 48 37 49 60
f 49 50 62 61
f 50 51 63 62
f 53 54 65 64
f 54 55 66 65
f 55 56 67 66
f 56 57 68 67
f 59 60 70 69
f 60 49 61 70
f 61 62 72 71
f 62 63 73 72
f 64 65 76 75
f 65 66 77 76
f 66 67 78 77
f 67 68 79 78
f 69 70 82 81
f 70 61 71 82
g Neck
f 71 72 84 83
f 72 73 85 84
f 73 74 86 85
f 74 75 87 86
f 75 76 88 87
f 76 77 89 88
f 77 78 90 89
f 78 79 91 90
f 79 80 92 91
f 80 81 93 92
f 81 82 94 93
f 82 71 83 94
f 83 84 96 95
f 84 85 97 96
f 85 86 98 97
f 86 87 99 98
f 87 88 100 99
f 88 89 101 100
f 89 90 102 101
f 90 91 103 102
f 91 92 104 103
f 92 93 105 104
f 93 94 106 105
f 94 83 95 106
f 95 96 108 107
f 96 97 109 108
f 97 98 110 109
f 98 99 111 110
f 99 100 112 111
f 100 101 113 112
f 101 102 114 113
f 102 103 115 114
f 103 104 116 115
f 104 105 117 116
f 105 106 118 117
f 106 95 107 118
g Head.UnderJaw
f 107 108 120 119
f 108 109 121 120
f 109 110 122 121
f 110 111 123 122
f 111 112 124 123
f 112 113 125 124
f 113 114 126 125
f 114 115 127 126
f 115 116 128 127
f 116 117 129 128
f 117 118 130 129
f 118 107 119 130
f 119 120 132 131
f 120 121 133 132
f 123 124 136 135
f 124 125 137 136
f 125 126 138 137
f 126 127 139 138
f 129 130 142 141
f 130 119 131 142
f 122 123 135 144
f 122 144 143 134
f 127 128 140 145
f 127 145 146 139
g Head.LeftContour
f 121 122 134 148
f 121 148 147 133
g Head.RightContour
f 128 129 141 149
f 128 149 150 140
g Head
f 131 132 152 151
f 132 133 153 152
f 135 136 156 155
f 136 137 157 156
f 137 138 158 157
f 138 139 159 158
f 141 142 162 161
f 142 131 151 162
g Head.LeftPostauricular
f 134 143 163 154
f 143 144 164 163
f 144 135 155 164
g Head.RightPostauricular
f 139 146 166 159
f 146 145 165 166
f 145 140 160 165
g Head.LeftContour
f 133 147 167 153
f 147 148 168 167
f 148 134 154 168
g Head.RightContour
f 140 150 170 160
f 150 149 169 170
f 149 141 161 169
g Head
f 151 152 172 171
f 152 153 173 172
f 155 156 176 175
f 156 157 177 176
f 157 158 178 177
f 158 159 179 178
f 161 162 182 181
f 162 151 171 182
g Head.LeftPostauricular
f 154 163 183 174
f 163 164 184 183
f 164 155 175 184
g Head.RightPostauricular
f 159 166 186 179
f 166 165 185 186
f 165 160 180 185
g Head.LeftContour
f 153 167 187 173
f 167 168 188 187
f 168 154 174 188
g Head.RightContour
f 160 170 190 180
f 170 169 189 190
f 169 161 181 189
g Head
f 171 172 192 191
f 172 173 193 192
f 175 176 196 195
f 176 177 197 196
f 177 178 198 197
f 178 179 199 198
f 181 182 202 201
f 182 171 191 202
g Head.LeftPostauricular
f 174 183 203 194
f 183 184 204 203
f 184 175 195 204
g Head.RightPostauricular
f 179 186 206 199
f 186 185 205 206
f 185 180 200 205
g Head.LeftContour
f 173 187 207 193
f 187 188 208 207
f 188 174 194 208
g Head.RightContour
f 180 190 210 200
f 190 189 209 210
f 189 181 201 209
g Head
f 195 196 215 214
f 196 197 216 215
f 197 198 217 216
f 198 199 218 217
g Head.LeftPostauricular
f 203 204 222 221
f 204 195 214 222
g Head.RightPostauricular
f 199 206 224 218
f 206 205 223 224
g Head.LeftContour
f 193 207 225 212
f 207 208 226 225
f 208 194 213 226
g Head.RightContour
f 200 210 228 219
f 210 209 227 228
f 209 201 220 227
g Head
f 214 215 233 232
f 215 216 234 233
f 216 217 235 234
f 217 218 236 235
g Head.LeftPostauricular
f 221 222 240 239
f 222 214 232 240
g Head.RightPostauricular
f 218 224 242 236
f 224 223 241 242
g Head.LeftContour
f 212 225 243 230
f 225 226 244 243
f 226 213 231 244
g Head.RightContour
f 219 228 246 237
f 228 227 245 246
f 227 220 238 245
g Head
f 232 233 252 251
f 233 234 253 252
f 234 235 254 253
f 235 236 255 254
g Head.LeftPostauricular
f 231 239 259 250
f 239 240 260 259
f 240 232 251 260
g Head.RightPostauricular
f 236 242 262 255
f 242 241 261 262
f 241 237 256 261
g Head.LeftContour
f 230 243 263 249
f 243 244 264 263
f 244 231 250 264
g Head.RightContour
f 237 246 266 256
f 246 245 265 266
f 245 238 257 265
g Head
f 247 248 268 267
f 248 249 269 268
f 251 252 272 271
f 252 253 273 272
f 253 254 274 273
f 254 255 275 274
f 257 258 278 277
f 258 247 267 278
g Head.LeftPostauricular
f 250 259 279 270
f 259 260 280 279
f 260 251 271 280
g Head.RightPostauricular
f 255 262 282 275
f 262 261 281 282
f 261 256 276 281
g Head.LeftContour
f 249 263 283 269
f 263 264 284 283
f 264 250 270 284
g Head.RightContour
f 256 266 286 276
f 266 265 285 286
f 265 257 277 285
g Head
f 267 268 288 287
f 268 269 289 288
f 271 272 292 291
f 272 273 293 292
f 273 274 294 293
f 274 275 295 294
f 277 278 298 297
f 278 267 287 298
g Head.LeftPostauricular
f 270 279 299 290
f 279 280 300 299
f 280 271 291 300
g Head.RightPostauricular
f 275 282 302 295
f 282 281 301 302
f 281 276 296 301
g Head.LeftContour
f 269 283 303 289
f 283 284 304 303
f 284 270 290 304
g Head.RightContour
f 276 286 306 296
f 286 285 305 306
f 285 277 297 305
g Head
f 287 288 308 307
f 288 289 309 308
f 291 292 312 311
f 292 293 313 312
f 293 294 314 313
f 294 295 315 314
f 297 298 318 317
f 298 287 307 318
g Head.LeftPostauricular
f 290 299 319 310
f 299 300 320 319
f 300 291 311 320
g Head.RightPostauricular
f 295 302 322 315
f 302 301 321 322
f 301 296 316 321
g Head.LeftContour
f 289 303 323 309
f 303 304 324 323
f 304 290 310 324
g Head.RightContour
f 296 306 326 316
f 306 305 325 326
f 305 297 317 325
g Head
f 307 308 328 327
f 308 309 329 328
f 311 312 332 331
f 312 313 333 332
f 313 314 334 333
f 314 315 335 334
f 317 318 338 337
f 318 307 327 338
g Head.LeftPostauricular
f 310 319 339 330
f 319 320 340 339
f 320 311 331 340
g Head.RightPostauricular
f 315 322 342 335
f 322 321 341 342
f 321 316 336 341
g Head.LeftContour
f 309 323 343 329
f 323 324 344 343
f 324 310 330 344
g Head.RightContour
f 316 326 346 336
f 326 325 345 346
f 325 317 337 345
g Head
f 347 327 328 329
f 347 329 343 344
f 347 344 330 339
f 347 339 340 331
f 347 331 332 333
f 347 333 334 335
f 347 335 342 341
f 347 341 336 346
f 347 346 345 337
f 347 337 338 327
g Head.LeftOrbit
f 191 192 349 348
f 192 193 350 349
f 193 212 351 350
f 212 230 352 351
f 230 249 353 352
f 249 248 354 353
f 248 247 355 354
f 247 229 356 355
f 229 211 357 356
f 211 191 348 357
g Head.LeftLid
f 348 349 359 358
f 349 350 360 359
f 350 351 361 360
f 351 352 362 361
f 352 353 363 362
f 353 354 364 363
f 354 355 365 364
f 355 356 366 365
f 356 357 367 366
f 357 348 358 367
g Head.LeftEye
f 368 358 359 360
f 368 360 361 362
f 368 362 363 364
f 368 364 365 366
f 368 366 367 358
g Head.RightOrbit
f 369 370 202 191
f 370 371 201 202
f 371 372 220 201
f 372 373 238 220
f 373 374 257 238
f 374 375 258 257
f 375 376 247 258
f 376 377 229 247
f 377 378 211 229
f 378 369 191 211
g Head.RightLid
f 379 380 370 369
f 380 381 371 370
f 381 382 372 371
f 382 383 373 372
f 383 384 374 373
f 384 385 375 374
f 385 386 376 375
f 386 387 377 376
f 387 388 378 377
f 388 379 369 378
g Head.RightEye
f 381 380 379 389
f 383 382 381 389
f 385 384 383 389
f 387 386 385 389
f 379 388 387 389
g Head.LeftEar.Root
f 194 203 391 390
f 203 221 392 391
f 221 239 393 392
f 239 231 394 393
f 231 213 395 394
f 213 194 390 395
g Head.LeftEar.Rim
f 390 391 397 396
f 391 392 398 397
f 392 393 399 398
f 393 394 400 399
f 394 395 401 400
f 395 390 396 401
g Head.LeftEar.Bowl
f 402 396 397 398
f 402 398 399 400
f 402 400 401 396
g Head.RightEar.Root
f 403 404 205 200
f 404 405 223 205
f 405 406 241 223
f 406 407 237 241
f 407 408 219 237
f 408 403 200 219
g Head.RightEar.Rim
f 409 410 404 403
f 410 411 405 404
f 411 412 406 405
f 412 413 407 406
f 413 414 408 407
f 414 409 403 408
g Head.RightEar.Bowl
f 411 410 409 415
f 413 412 411 415
f 409 414 413 415
g LeftLeg
f 417 418 2 1
f 418 419 3 2
f 419 420 4 3
f 420 421 5 4
f 421 422 6 5
f 422 423 7 6
f 423 424 416 7
f 424 417 1 416
f 425 426 418 417
f 426 427 419 418
f 427 428 420 419
f 428 429 421 420
f 429 430 422 421
f 430 431 423 422
f 431 432 424 423
f 432 425 417 424
f 433 434 426 425
f 434 435 427 426
f 435 436 428 427
f 436 437 429 428
f 437 438 430 429
f 438 439 431 430
f 439 440 432 431
f 440 433 425 432
f 441 442 434 433
f 442 443 435 434
f 443 444 436 435
f 444 445 437 436
f 445 446 438 437
f 446 447 439 438
f 447 448 440 439
f 448 441 433 440
f 449 450 442 441
f 450 451 443 442
f 451 452 444 443
f 452 453 445 444
f 453 454 446 445
f 454 455 447 446
f 455 456 448 447
f 456 449 441 448
f 457 458 450 449
f 458 459 451 450
f 459 460 452 451
f 460 461 453 452
f 461 462 454 453
f 462 463 455 454
f 463 464 456 455
f 464 457 449 456
f 465 466 458 457
f 466 467 459 458
f 467 468 460 459
f 468 469 461 460
f 469 470 462 461
f 470 471 463 462
f 471 472 464 463
f 472 465 457 464
f 473 474 466 465
f 474 475 467 466
f 475 476 468 467
f 476 477 469 468
f 477 478 470 469
f 478 479 471 470
f 479 480 472 471
f 480 473 465 472
f 481 482 474 473
f 482 483 475 474
f 483 484 476 475
f 484 485 477 476
f 485 486 478 477
f 486 487 479 478
f 487 488 480 479
f 488 481 473 480
g LeftSole
f 483 482 481 489
f 485 484 483 489
f 487 486 485 489
f 481 488 487 489
g LeftArm
f 51 52 491 490
f 52 53 492 491
f 53 64 493 492
f 64 75 494 493
f 75 74 495 494
f 74 73 496 495
f 73 63 497 496
f 63 51 490 497
f 490 491 499 498
f 491 492 500 499
f 492 493 501 500
f 493 494 502 501
f 494 495 503 502
f 495 496 504 503
f 496 497 505 504
f 497 490 498 505
f 498 499 507 506
f 499 500 508 507
f 500 501 509 508
f 501 502 510 509
f 502 503 511 510
f 503 504 512 511
f 504 505 513 512
f 505 498 506 513
f 506 507 515 514
f 507 508 516 515
f 508 509 517 516
f 509 510 518 517
f 510 511 519 518
f 511 512 520 519
f 512 513 521 520
f 513 506 514 521
f 514 515 523 522
f 515 516 524 523
f 516 517 525 524
f 517 518 526 525
f 518 519 527 526
f 519 520 528 527
f 520 521 529 528
f 521 514 522 529
g LeftHand
f 522 523 531 530
f 523 524 532 531
f 524 525 533 532
f 525 526 534 533
f 526 527 535 534
f 527 528 536 535
f 528 529 537 536
f 529 522 530 537
f 530 531 539 538
f 531 532 540 539
f 532 533 541 540
f 533 534 542 541
f 534 535 543 542
f 535 536 544 543
f 536 537 545 544
f 537 530 538 545
f 538 539 547 546
f 539 540 548 547
f 540 541 549 548
f 541 542 550 549
f 542 543 551 550
f 543 544 552 551
f 546 547 555 554
f 547 548 556 555
f 548 549 557 556
f 549 550 558 557
f 550 551 559 558
f 551 552 560 559
f 552 553 561 560
f 553 546 554 561
f 562 554 555 556
f 562 556 557 558
f 562 558 559 560
f 562 560 561 554
g LeftThumb
f 544 545 564 563
f 545 538 565 564
f 538 546 566 565
f 546 553 567 566
f 553 552 568 567
f 552 544 563 568
f 569 563 564 565
f 569 565 566 567
f 569 567 568 563
g RightLeg
f 1 12 571 570
f 12 11 572 571
f 11 10 573 572
f 10 9 574 573
f 9 8 575 574
f 8 7 576 575
f 7 416 577 576
f 416 1 570 577
f 570 571 579 578
f 571 572 580 579
f 572 573 581 580
f 573 574 582 581
f 574 575 583 582
f 575 576 584 583
f 576 577 585 584
f 577 570 578 585
f 578 579 587 586
f 579 580 588 587
f 580 581 589 588
f 581 582 590 589
f 582 583 591 590
f 583 584 592 591
f 584 585 593 592
f 585 578 586 593
f 586 587 595 594
f 587 588 596 595
f 588 589 597 596
f 589 590 598 597
f 590 591 599 598
f 591 592 600 599
f 592 593 601 600
f 593 586 594 601
f 594 595 603 602
f 595 596 604 603
f 596 597 605 604
f 597 598 606 605
f 598 599 607 606
f 599 600 608 607
f 600 601 609 608
f 601 594 602 609
f 602 603 611 610
f 603 604 612 611
f 604 605 613 612
f 605 606 614 613
f 606 607 615 614
f 607 608 616 615
f 608 609 617 616
f 609 602 610 617
f 610 611 619 618
f 611 612 620 619
f 612 613 621 620
f 613 614 622 621
f 614 615 623 622
f 615 616 624 623
f 616 617 625 624
f 617 610 618 625
f 618 619 627 626
f 619 620 628 627
f 620 621 629 628
f 621 622 630 629
f 622 623 631 630
f 623 624 632 631
f 624 625 633 632
f 625 618 626 633
f 626 627 635 634
f 627 628 636 635
f 628 629 637 636
f 629 630 638 637
f 630 631 639 638
f 631 632 640 639
f 632 633 641 640
f 633 626 634 641
g RightSole
f 642 634 635 636
f 642 636 637 638
f 642 638 639 640
f 642 640 641 634
g RightArm
f 643 644 58 59
f 644 645 57 58
f 645 646 68 57
f 646 647 79 68
f 647 648 80 79
f 648 649 81 80
f 649 650 69 81
f 650 643 59 69
f 651 652 644 643
f 652 653 645 644
f 653 654 646 645
f 654 655 647 646
f 655 656 648 647
f 656 657 649 648
f 657 658 650 649
f 658 651 643 650
f 659 660 652 651
f 660 661 653 652
f 661 662 654 653
f 662 663 655 654
f 663 664 656 655
f 664 665 657 656
f 665 666 658 657
f 666 659 651 658
f 667 668 660 659
f 668 669 661 660
f 669 670 662 661
f 670 671 663 662
f 671 672 664 663
f 672 673 665 664
f 673 674 666 665
f 674 667 659 666
f 675 676 668 667
f 676 677 669 668
f 677 678 670 669
f 678 679 671 670
f 679 680 672 671
f 680 681 673 672
f 681 682 674 673
f 682 675 667 674
g RightHand
f 683 684 676 675
f 684 685 677 676
f 685 686 678 677
f 686 687 679 678
f 687 688 680 679
f 688 689 681 680
f 689 690 682 681
f 690 683 675 682
f 691 692 684 683
f 692 693 685 684
f 693 694 686 685
f 694 695 687 686
f 695 696 688 687
f 696 697 689 688
f 697 698 690 689
f 698 691 683 690
f 699 700 692 691
f 700 701 693 692
f 701 702 694 693
f 702 703 695 694
f 703 704 696 695
f 704 705 697 696
f 707 708 700 699
f 708 709 701 700
f 709 710 702 701
f 710 711 703 702
f 711 712 704 703
f 712 713 705 704
f 713 714 706 705
f 714 707 699 706
f 709 708 707 715
f 711 710 709 715
f 713 712 711 715
f 707 714 713 715
g RightThumb
f 716 717 698 697
f 717 718 691 698
f 718 719 699 691
f 719 720 706 699
f 720 721 705 706
f 721 716 697 705
f 718 717 716 722
f 720 719 718 722
f 716 721 720 722
